<?xml version="1.0" encoding="UTF-8"?>
<svg xmlns="http://www.w3.org/2000/svg" xmlns:xlink="http://www.w3.org/1999/xlink" width="269.417" height="106" viewBox="0 0 269.417 106">
  <defs>
    <linearGradient id="a" y1="0.586" x2="1" y2="0.58" gradientUnits="objectBoundingBox">
      <stop offset="0" stop-color="#c9599a"></stop>
      <stop offset="0.5" stop-color="#b5006d"></stop>
      <stop offset="1" stop-color="#88086e"></stop>
    </linearGradient>
    <linearGradient id="b" y1="0.037" x2="0.788" y2="0.873" gradientUnits="objectBoundingBox">
      <stop offset="0" stop-color="#30a2c2"></stop>
      <stop offset="0.011" stop-color="#30a2c2"></stop>
      <stop offset="0.5" stop-color="#007ea6"></stop>
      <stop offset="0.994" stop-color="#00636b"></stop>
      <stop offset="1" stop-color="#00636b"></stop>
    </linearGradient>
    <linearGradient id="c" y1="1.135" x2="0.828" y2="-0.407" gradientUnits="objectBoundingBox">
      <stop offset="0" stop-color="#ffea00"></stop>
      <stop offset="0.043" stop-color="#ffdb00"></stop>
      <stop offset="0.119" stop-color="#ffc900"></stop>
      <stop offset="0.197" stop-color="#ffbd00"></stop>
      <stop offset="0.281" stop-color="#ffba00"></stop>
      <stop offset="0.669" stop-color="#ef7a22"></stop>
      <stop offset="0.888" stop-color="#e24723"></stop>
      <stop offset="1" stop-color="#d91820"></stop>
    </linearGradient>
  </defs>
  <g transform="translate(-32.001 -92)">
    <rect width="269.417" height="106" transform="translate(32.001 92)" fill="#fff"></rect>
    <g transform="translate(47.529 107.276)">
      <g transform="translate(0 0)">
        <g transform="translate(12.124)">
          <path d="M48.782,17.169V41.664l7.551,14.411L34.476,24.286c-.866.436-5.1,2.578-7.925,4a3.084,3.084,0,0,1,.121,2.309l5.974,2.285,5.842,2.369L32.583,33.26l-6.037-2.313a3.25,3.25,0,0,1-1.117,1.334L47.5,64.287l15.317,4.77,0-60.545Z" transform="translate(-25.428 -8.512)" fill="url(#a)"></path>
        </g>
        <g transform="translate(0.103 0.154)">
          <path d="M18.78,8.6v16.4L26.1,28.121a3.206,3.206,0,0,1,1.168-1.309l-.969-2.687-3.687-8.386,3.907,7.987L28,26.476a3.173,3.173,0,0,1,.984-.17,3.232,3.232,0,0,1,.969.165l.043-.118,2.316-5.665-1.956,5.764-.051.139a3.252,3.252,0,0,1,1.291,1.061l7.478-4.714-3.56-5.878L18.782,8.6Z" transform="translate(-18.78 -8.597)" fill="url(#b)"></path>
        </g>
        <g transform="translate(0.103 17.852)">
          <path d="M18.78,61.082l13.971-4.773V32.342l-2.694-7.665a3.112,3.112,0,0,1-1.078.192A3.3,3.3,0,0,1,28,24.7l-.043.114-3.8,9.227L27.6,24.719l.054-.143a3.21,3.21,0,0,1-1.474-1.365l-5,2.513,4.873-2.772a3.467,3.467,0,0,1-.3-1.322,3,3,0,0,1,.094-.745l-7.068-2.5Z" transform="translate(-18.78 -18.385)" fill="url(#c)"></path>
        </g>
        <g transform="translate(0 0.6)">
          <g transform="translate(0 0)">
            <path d="M86.751,37.295a12.471,12.471,0,0,1-3.22,3.962,19.664,19.664,0,0,1-12.337,4.1c-11.509,0-19.41-7.578-19.41-18.087,0-10.362,7.612-18.43,19.557-18.43a22.1,22.1,0,0,1,12.874,3.815A18.047,18.047,0,0,1,88.9,17.933l-3.218,1.859a13.157,13.157,0,0,0-2.926-3.862,17.275,17.275,0,0,0-11.659-4.005c-9.507,0-15.8,6.7-15.8,15.2,0,8.8,6.29,15.156,16.19,15.156a16.378,16.378,0,0,0,11.171-4.106,12.068,12.068,0,0,0,4.092-8.9l-18.334,0,0-2.935H89.726V44.386H86.748Z" transform="translate(7.995 -8.844)"></path>
            <path d="M82.276,19.387a9.789,9.789,0,0,1,1.654-1.857c3.459-2.886,7.656-2.837,10.386-2.785v3.374a22.522,22.522,0,0,0-2.483-.2,11.722,11.722,0,0,0-5.757,1.416,7.322,7.322,0,0,0-2.83,2.879,9.049,9.049,0,0,0-.973,4.3V39.629H79.1V15.477l3.171,0Z" transform="translate(30.072 -4.086)"></path>
            <path d="M122.205,39.548a27.629,27.629,0,0,1-2.929.2c-2.73,0-3.607-1.125-4-3.714-1.9,1.418-5.558,4.153-12.821,4.153-4.441,0-6.294-.975-7.026-1.369a7.363,7.363,0,0,1-3.754-6.448,7.289,7.289,0,0,1,2.927-5.92c3.459-2.492,11.216-2.589,20.625-2.687,0-2.882-.045-6.059-9.945-6.063-7.656,0-8.974,2.054-9.948,4.938L91.97,22.49a9.138,9.138,0,0,1,1.268-3.128c2.584-3.963,7.312-4.6,11.9-4.6,3.074.005,7.216.344,9.853,1.859,3.07,1.763,3.217,5.233,3.217,6.6l0,10.319c0,2.634.533,3.761,3.994,3.562Zm-25.021-10.8a4.448,4.448,0,0,0-2.05,3.663c0,4.452,5.513,4.887,7.706,4.891,4.875,0,9.122-1.812,10.876-3.817,1.512-1.756,1.609-4.009,1.56-6.988-7.312,0-15.214.1-18.092,2.251" transform="translate(40.232 -4.06)"></path>
            <path d="M141.2,39.6h-3.217l0-13.156c0-3.327-.244-8.6-10.294-8.6-3.316,0-6.918.778-9.167,3.124-1.51,1.569-1.705,2.841-1.705,5.09V39.6H113.55V15.449h3.269v3.372c1.268-1.271,4.048-4.054,11.265-4.054a18.05,18.05,0,0,1,8.487,1.9c4.486,2.492,4.582,6.6,4.629,9.581Z" transform="translate(57.91 -4.057)"></path>
            <path d="M159.756,9.412h3.215V43.929h-3.217l0-3.721a10.094,10.094,0,0,1-3.71,2.888,17,17,0,0,1-7.265,1.465c-7.41,0-14.628-4.251-14.628-12.807,0-8.458,7.509-12.709,14.776-12.706,4.775,0,9.12,1.855,10.825,4.593ZM158.1,38.056a10.84,10.84,0,0,0,1.658-6.451c0-5.088-2.389-6.891-3.166-7.477a13.361,13.361,0,0,0-8.1-2.349c-4.636.2-10.634,2.788-10.731,10.026,0,5.417,3.9,10.017,11.509,10.017,4.242,0,7.319-1.71,8.827-3.766" transform="translate(74.56 -8.385)"></path>
            <path d="M51.785,33.074h3.7l7.287,8.3c.886,1.032,1.052,1.244,1.982,2.407-.127-1.418-.127-1.794-.148-3.081V33.074h3.558v14.9H64.482l-7.37-8.4c-.779-.908-1.1-1.291-1.917-2.343a25.278,25.278,0,0,1,.125,2.533v8.211H51.785Z" transform="translate(7.995 10.737)"></path>
            <path d="M71.1,33.075h4.023l7.18,14.9H78.135L76.869,45.17H69.246l-1.262,2.808H63.919Zm2.36,4.58a3.612,3.612,0,0,1-.253-.591,2.6,2.6,0,0,1-.127-.591c-.063.19-.1.36-.146.528-.083.192-.148.383-.231.571l-2.255,4.962H75.67Z" transform="translate(17.801 10.738)"></path>
            <path d="M77.1,33.074H87.335c1.685,0,3.224.146,4.462,1.584a4.4,4.4,0,0,1,.971,2.871,4.112,4.112,0,0,1-1.43,3.291,5.679,5.679,0,0,1-2.423.931l4.506,6.227H89.042l-3.982-5.994H80.828v5.994H77.1Zm3.725,6.271h5.938c.8,0,2.235-.1,2.235-1.774a2.124,2.124,0,0,0-.295-1.161c-.275-.358-.633-.716-2.108-.716h-5.77Z" transform="translate(28.456 10.737)"></path>
            <path d="M89.621,33.075h9.643c1.539.042,3.414.083,4.423,1.541a3.625,3.625,0,0,1,.589,2.11,3.046,3.046,0,0,1-2.463,3.168,3.694,3.694,0,0,1,3.222,3.8,4.615,4.615,0,0,1-.673,2.513c-1.161,1.75-3.076,1.75-4.529,1.772H89.621Zm3.685,5.869h5.329a3.4,3.4,0,0,0,1.2-.15,1.575,1.575,0,0,0,.884-1.519c0-1.58-1.2-1.6-1.79-1.6H93.306Zm0,6.415h5.58c.843,0,2.421.02,2.421-2.023a1.662,1.662,0,0,0-1.958-1.794H93.306Z" transform="translate(38.572 10.738)"></path>
            <path d="M118.179,35.715a7.678,7.678,0,0,1,1.6,4.88c0,4.75-3.074,8.082-9.075,8.082s-9.182-3.271-9.182-7.918c0-5.128,3.665-7.724,8.551-7.936,2.927-.125,6.254.635,8.106,2.891m-12.823,5.13a4.985,4.985,0,0,0,5.287,5.173,4.982,4.982,0,0,0,5.325-5.236,5.306,5.306,0,1,0-10.612.063" transform="translate(48.19 10.524)"></path>
            <path d="M115.4,33.074h3.707l7.283,8.3c.89,1.032,1.056,1.244,1.982,2.407-.125-1.418-.125-1.794-.145-3.081V33.074h3.555v14.9H128.1l-7.372-8.4c-.779-.908-1.1-1.291-1.913-2.343.1,1.139.1,1.394.123,2.533v8.211H115.4Z" transform="translate(59.407 10.737)"></path>
            <path d="M128.912,33.074h3.707l7.285,8.3c.884,1.032,1.054,1.244,1.98,2.407-.125-1.418-.125-1.794-.148-3.081V33.074H145.3v14.9h-3.687l-7.37-8.4c-.779-.908-1.094-1.291-1.917-2.343.1,1.139.1,1.394.127,2.533v8.211h-3.538Z" transform="translate(70.324 10.737)"></path>
            <path d="M142.421,33.074h13.856v2.681H146.149v3.358h9.791v2.638h-9.791v3.566H156.7v2.662H142.421Z" transform="translate(81.241 10.737)"></path>
            <path d="M26.887,51.051a3.308,3.308,0,0,1-1.219,1.367,5.324,5.324,0,0,1-2.765.691c-2.8,0-4.18-1.609-4.18-3.658A3.169,3.169,0,0,1,20,46.713a4.267,4.267,0,0,1,2.873-.866,5.263,5.263,0,0,1,2.622.642,3.681,3.681,0,0,1,1.257,1.347l-1.052.235a2.162,2.162,0,0,0-.75-.852,3.915,3.915,0,0,0-2.038-.519c-1.635,0-3.153.776-3.153,2.718a2.864,2.864,0,0,0,.711,1.962,3.369,3.369,0,0,0,2.5.881,3.429,3.429,0,0,0,2.193-.595,2.3,2.3,0,0,0,.691-.834Z" transform="translate(-18.723 21.059)"></path>
            <path d="M32.887,49.577c0,2.356-1.929,3.537-4.139,3.537a4.806,4.806,0,0,1-2.828-.763,3.234,3.234,0,0,1-1.392-2.785c0-2.546,2.094-3.7,4.151-3.7,2.407.009,4.208,1.425,4.208,3.71M25.5,49.51a2.663,2.663,0,0,0,.606,1.758,3.367,3.367,0,0,0,2.642.994c2.542,0,3.157-1.611,3.157-2.779,0-1.821-1.452-2.822-3.332-2.777-1.434.04-3.072.763-3.072,2.8" transform="translate(-14.032 21.075)"></path>
            <path d="M30.755,45.959H32.1l2.143,4.5c.342.74.4.886.662,1.542a15.117,15.117,0,0,1,.624-1.515L37.7,45.959h1.324v6.9h-.913V48.89a13.883,13.883,0,0,1,.087-2.11,10.741,10.741,0,0,1-.517,1.213l-2.349,4.862h-.9L32.285,48.38a14.315,14.315,0,0,1-.694-1.569,14.034,14.034,0,0,1,.08,1.747v4.3h-.915Z" transform="translate(-9 21.15)"></path>
            <path d="M37.239,45.959h1.347l2.143,4.5c.34.74.4.886.662,1.542a14.728,14.728,0,0,1,.626-1.515l2.172-4.522h1.324v6.9h-.917V48.89a14.048,14.048,0,0,1,.089-2.11,10.693,10.693,0,0,1-.514,1.213l-2.349,4.862h-.9L38.772,48.38a13.28,13.28,0,0,1-.693-1.569,15.973,15.973,0,0,1,.076,1.747v4.3h-.917Z" transform="translate(-3.76 21.15)"></path>
            <path d="M44.708,45.959v4.09c.009.8.087,1.275.683,1.654a3.261,3.261,0,0,0,1.891.468,4.068,4.068,0,0,0,1.626-.3,1.552,1.552,0,0,0,.888-1.691v-4.22h.982V50.1a2.411,2.411,0,0,1-1.052,2.327,4.417,4.417,0,0,1-2.454.589,4.353,4.353,0,0,1-2.544-.662,2.471,2.471,0,0,1-1-2.343V45.959Z" transform="translate(1.481 21.15)"></path>
            <path d="M50.544,45.959l4.638,4.933c.331.353.4.432.732.839a9.785,9.785,0,0,1-.06-1.014V45.959h.937v6.9h-.957l-4.871-5.166c-.253-.286-.331-.382-.535-.638a10.859,10.859,0,0,1,.049,1.193v4.611H49.54v-6.9Z" transform="translate(6.181 21.15)"></path>
            <path d="M58.338,45.954h1.034L62.9,52.861H61.778l-.841-1.7H56.71l-.839,1.7h-1.09Zm.73,1.5c-.047-.116-.107-.237-.155-.353-.029-.089-.058-.177-.078-.264-.031.087-.06.188-.1.284-.049.127-.107.244-.168.372l-1.45,2.86h3.4Z" transform="translate(10.417 21.146)"></path>
            <path d="M61.356,45.959v4.09c.009.8.087,1.275.68,1.654a3.274,3.274,0,0,0,1.893.468,4.055,4.055,0,0,0,1.626-.3,1.552,1.552,0,0,0,.888-1.691v-4.22h.985V50.1a2.409,2.409,0,0,1-1.054,2.327,4.428,4.428,0,0,1-2.455.589,4.35,4.35,0,0,1-2.542-.662,2.471,2.471,0,0,1-1-2.343V45.959Z" transform="translate(14.935 21.15)"></path>
            <path d="M65.579,45.959h6.594v.821H69.358v6.075h-.973V46.78H65.579Z" transform="translate(19.143 21.15)"></path>
            <path d="M70.534,46.71h6.354v.852H71.5v2.059h5.233v.812H71.5v2.323h5.623v.852H70.534ZM73.8,45.03h1.226L73.8,46.261h-.633Z" transform="translate(23.147 20.399)"></path>
            <path d="M78.333,45.959h3.425a3.75,3.75,0,0,1,2.627.759,3.31,3.31,0,0,1,1.141,2.642,3.557,3.557,0,0,1-.966,2.508,4.636,4.636,0,0,1-3.468.987H78.333Zm.985.808v5.258h2.007A3.071,3.071,0,0,0,84,51.06a2.851,2.851,0,0,0,.535-1.732,2.61,2.61,0,0,0-.723-1.906,2.7,2.7,0,0,0-2.045-.655Z" transform="translate(29.45 21.15)"></path>
            <path d="M83.752,45.959h1.07v1.2a1.5,1.5,0,0,1-.145.759,1.126,1.126,0,0,1-.926.419v-.533c.438-.04.438-.219.438-.783h-.438Z" transform="translate(33.829 21.15)"></path>
            <path d="M88.453,45.954h1.032l3.529,6.907H91.892l-.837-1.7H86.825l-.837,1.7H84.9Zm.73,1.5c-.049-.116-.108-.237-.156-.353-.029-.089-.06-.177-.08-.264-.027.087-.058.188-.1.284-.047.127-.107.244-.166.372l-1.452,2.86h3.4Z" transform="translate(34.754 21.146)"></path>
            <path d="M97.237,51.991c-.127.118-.235.224-.38.345a4.511,4.511,0,0,1-2.622.756A3.682,3.682,0,0,1,90.3,49.471a3.611,3.611,0,0,1,.595-1.973A4.185,4.185,0,0,1,94.4,45.867a4.582,4.582,0,0,1,2.98.987,2.819,2.819,0,0,1,.673.839l-.964.293a2.4,2.4,0,0,0-.438-.517,3.328,3.328,0,0,0-2.173-.75c-1.7,0-3.139.957-3.139,2.692a3.015,3.015,0,0,0,.466,1.6,3.348,3.348,0,0,0,4.915.351,1.992,1.992,0,0,0,.542-1.246H94.235V49.3h3.85v3.642h-.848Z" transform="translate(39.12 21.075)"></path>
            <path d="M103.047,51.991c-.128.118-.233.224-.382.345a4.5,4.5,0,0,1-2.62.756,3.679,3.679,0,0,1-3.935-3.622A3.629,3.629,0,0,1,96.7,47.5a4.189,4.189,0,0,1,3.51-1.631,4.576,4.576,0,0,1,2.978.987,2.861,2.861,0,0,1,.674.839l-.967.293a2.285,2.285,0,0,0-.436-.517,3.331,3.331,0,0,0-2.173-.75c-1.7,0-3.137.957-3.137,2.692a2.981,2.981,0,0,0,.468,1.6,3.341,3.341,0,0,0,4.909.351,2.009,2.009,0,0,0,.546-1.246h-3.03V49.3h3.848v3.642h-.846Z" transform="translate(43.817 21.075)"></path>
            <path d="M102.228,45.959h.975v6.057h4.56v.839h-5.535Z" transform="translate(48.76 21.15)"></path>
            <path d="M114.407,49.577c0,2.356-1.927,3.537-4.141,3.537a4.806,4.806,0,0,1-2.828-.763,3.234,3.234,0,0,1-1.392-2.785c0-2.546,2.094-3.7,4.15-3.7,2.408.009,4.211,1.425,4.211,3.71m-7.384-.067a2.668,2.668,0,0,0,.6,1.758,3.372,3.372,0,0,0,2.642.994c2.542,0,3.157-1.611,3.157-2.779,0-1.821-1.452-2.822-3.334-2.777-1.432.04-3.067.763-3.067,2.8" transform="translate(51.846 21.075)"></path>
            <path d="M112.272,45.959h1.343l2.143,4.5c.342.74.4.886.664,1.542a15.551,15.551,0,0,1,.624-1.515l2.172-4.522h1.325v6.9h-.915V48.89a13.8,13.8,0,0,1,.089-2.11,11.053,11.053,0,0,1-.515,1.213l-2.351,4.862h-.9L113.8,48.38a14.245,14.245,0,0,1-.693-1.569,14.531,14.531,0,0,1,.078,1.747v4.3h-.915Z" transform="translate(56.877 21.15)"></path>
            <path d="M118.423,46.71h6.354v.852H119.4v2.059h5.229v.812H119.4v2.323h5.618v.852h-6.594Zm3.262-1.68h1.23L121.7,46.261h-.633Z" transform="translate(61.848 20.399)"></path>
            <path d="M123.448,45.959h4.678a2.741,2.741,0,0,1,1.927.559,1.872,1.872,0,0,1,.615,1.475,1.906,1.906,0,0,1-1.852,1.951l2.533,2.913h-1.277L127.744,50.1h-3.323v2.756h-.973Zm.964.834v2.5h3.4a1.877,1.877,0,0,0,1.607-.524,1.184,1.184,0,0,0,.231-.736,1.357,1.357,0,0,0-.2-.732,1.309,1.309,0,0,0-1.257-.5Z" transform="translate(65.909 21.15)"></path>
            <path d="M132.13,45.954h1.032l3.529,6.907h-1.121l-.839-1.7H130.5l-.839,1.7h-1.09Zm.731,1.5c-.047-.116-.107-.237-.156-.353a2.553,2.553,0,0,1-.078-.264c-.029.087-.058.188-.1.284-.049.127-.107.244-.166.372l-1.452,2.86h3.4Z" transform="translate(70.052 21.146)"></path>
            <path d="M133.228,45.959h6.6v.821h-2.817v6.075h-.973V46.78h-2.806Z" transform="translate(73.812 21.15)"></path>
            <rect width="1.002" height="6.896" transform="translate(215.978 67.109)"></rect>
            <path d="M148.669,49.577c0,2.356-1.929,3.537-4.141,3.537a4.81,4.81,0,0,1-2.828-.763,3.237,3.237,0,0,1-1.39-2.785c0-2.546,2.094-3.7,4.15-3.7,2.408.009,4.209,1.425,4.209,3.71m-7.384-.067a2.661,2.661,0,0,0,.6,1.758,3.371,3.371,0,0,0,2.64.994c2.546,0,3.157-1.611,3.157-2.779,0-1.821-1.452-2.822-3.332-2.777-1.434.04-3.068.763-3.068,2.8" transform="translate(79.535 21.075)"></path>
            <path d="M147.548,45.959l4.636,4.933c.327.353.4.432.73.839a9.8,9.8,0,0,1-.06-1.014V45.959h.935v6.9h-.953l-4.875-5.166c-.251-.286-.329-.382-.532-.638a11.888,11.888,0,0,1,.047,1.193v4.611h-.937v-6.9Z" transform="translate(84.571 21.15)"></path>
          </g>
        </g>
      </g>
    </g>
  </g>
</svg>
