<?xml version="1.0" encoding="UTF-8"?> <svg xmlns="http://www.w3.org/2000/svg" id="Ebene_2" viewBox="0 0 500 212"><g id="Ebene_1-2"><g><g><path d="M202,51.2h4.8c1.5,0,2.7-.5,3.8-1.6,1.1-1,1.6-2.7,1.6-4.8s-.4-3.3-1.3-4.4c-.9-1.1-2.3-1.6-4.4-1.6h-4.6v12.3Zm-4.1-15.7h8.4c.5,0,1,0,1.7,0,.7,0,1.4,.1,2.2,.3,.7,.2,1.5,.4,2.3,.8,.8,.4,1.4,.9,2,1.6,.6,.7,1.1,1.6,1.4,2.7,.4,1.1,.5,2.4,.5,4s-.2,2.9-.7,4.1c-.5,1.2-1.1,2.2-1.9,3-.8,.8-1.8,1.4-3,1.8-1.2,.4-2.4,.6-3.8,.6h-5v13.9h-4.1V35.6Z" fill="#fff"></path><path d="M202,51.2h4.8c1.5,0,2.7-.5,3.8-1.6,1.1-1,1.6-2.7,1.6-4.8s-.4-3.3-1.3-4.4c-.9-1.1-2.3-1.6-4.4-1.6h-4.6v12.3Zm-4.1-15.7h8.4c.5,0,1,0,1.7,0,.7,0,1.4,.1,2.2,.3,.7,.2,1.5,.4,2.3,.8,.8,.4,1.4,.9,2,1.6,.6,.7,1.1,1.6,1.4,2.7,.4,1.1,.5,2.4,.5,4s-.2,2.9-.7,4.1c-.5,1.2-1.1,2.2-1.9,3-.8,.8-1.8,1.4-3,1.8-1.2,.4-2.4,.6-3.8,.6h-5v13.9h-4.1V35.6Z" fill="#fff"></path><path d="M220.1,35.6h4.1v23.1c0,2.4,.4,4.2,1.2,5.4,.8,1.2,2.2,1.7,4.2,1.7s3.6-.6,4.3-1.8c.8-1.2,1.2-3,1.2-5.3v-23.1h4.1v23.1c0,3.2-.8,5.7-2.4,7.6-1.6,1.9-4,2.8-7.2,2.8s-5.8-.9-7.3-2.6c-1.5-1.7-2.3-4.3-2.3-7.8v-23.1Z" fill="#fff"></path><path d="M220.1,35.6h4.1v23.1c0,2.4,.4,4.2,1.2,5.4,.8,1.2,2.2,1.7,4.2,1.7s3.6-.6,4.3-1.8c.8-1.2,1.2-3,1.2-5.3v-23.1h4.1v23.1c0,3.2-.8,5.7-2.4,7.6-1.6,1.9-4,2.8-7.2,2.8s-5.8-.9-7.3-2.6c-1.5-1.7-2.3-4.3-2.3-7.8v-23.1Z" fill="#fff"></path><polygon points="244.8 35.6 251.8 35.6 258.3 61.6 258.4 61.6 265 35.6 271.9 35.6 271.9 68.4 267.8 68.4 267.8 39.7 267.7 39.7 260.5 68.4 256.3 68.4 249 39.7 249 39.7 249 68.4 244.8 68.4 244.8 35.6" fill="#fff"></polygon><polygon points="244.8 35.6 251.8 35.6 258.3 61.6 258.4 61.6 265 35.6 271.9 35.6 271.9 68.4 267.8 68.4 267.8 39.7 267.7 39.7 260.5 68.4 256.3 68.4 249 39.7 249 39.7 249 68.4 244.8 68.4 244.8 35.6" fill="#fff"></polygon><path d="M281.8,51.2h4.8c1.5,0,2.7-.5,3.8-1.6,1.1-1,1.6-2.7,1.6-4.8s-.4-3.3-1.3-4.4c-.9-1.1-2.3-1.6-4.4-1.6h-4.6v12.3Zm-4.1-15.7h8.4c.5,0,1,0,1.7,0,.7,0,1.4,.1,2.2,.3,.7,.2,1.5,.4,2.3,.8,.8,.4,1.4,.9,2,1.6,.6,.7,1.1,1.6,1.4,2.7,.4,1.1,.6,2.4,.6,4s-.2,2.9-.7,4.1c-.5,1.2-1.1,2.2-1.9,3-.8,.8-1.8,1.4-3,1.8-1.2,.4-2.4,.6-3.8,.6h-5v13.9h-4.1V35.6Z" fill="#fff"></path><path d="M281.8,51.2h4.8c1.5,0,2.7-.5,3.8-1.6,1.1-1,1.6-2.7,1.6-4.8s-.4-3.3-1.3-4.4c-.9-1.1-2.3-1.6-4.4-1.6h-4.6v12.3Zm-4.1-15.7h8.4c.5,0,1,0,1.7,0,.7,0,1.4,.1,2.2,.3,.7,.2,1.5,.4,2.3,.8,.8,.4,1.4,.9,2,1.6,.6,.7,1.1,1.6,1.4,2.7,.4,1.1,.6,2.4,.6,4s-.2,2.9-.7,4.1c-.5,1.2-1.1,2.2-1.9,3-.8,.8-1.8,1.4-3,1.8-1.2,.4-2.4,.6-3.8,.6h-5v13.9h-4.1V35.6Z" fill="#fff"></path><path d="M315.9,51.2h4.8c1.5,0,2.7-.5,3.8-1.6,1.1-1,1.6-2.7,1.6-4.8s-.4-3.3-1.3-4.4c-.9-1.1-2.3-1.6-4.4-1.6h-4.6v12.3Zm-4.1-15.7h8.4c.5,0,1,0,1.7,0,.7,0,1.4,.1,2.2,.3s1.5,.4,2.3,.8c.8,.4,1.4,.9,2,1.6,.6,.7,1.1,1.6,1.4,2.7,.4,1.1,.5,2.4,.5,4s-.2,2.9-.7,4.1c-.5,1.2-1.1,2.2-1.9,3-.8,.8-1.8,1.4-3,1.8-1.2,.4-2.4,.6-3.8,.6h-5v13.9h-4.1V35.6Z" fill="#fff"></path><path d="M315.9,51.2h4.8c1.5,0,2.7-.5,3.8-1.6,1.1-1,1.6-2.7,1.6-4.8s-.4-3.3-1.3-4.4c-.9-1.1-2.3-1.6-4.4-1.6h-4.6v12.3Zm-4.1-15.7h8.4c.5,0,1,0,1.7,0,.7,0,1.4,.1,2.2,.3s1.5,.4,2.3,.8c.8,.4,1.4,.9,2,1.6,.6,.7,1.1,1.6,1.4,2.7,.4,1.1,.5,2.4,.5,4s-.2,2.9-.7,4.1c-.5,1.2-1.1,2.2-1.9,3-.8,.8-1.8,1.4-3,1.8-1.2,.4-2.4,.6-3.8,.6h-5v13.9h-4.1V35.6Z" fill="#fff"></path><path d="M338.4,50.5h4c.6,0,1.3,0,2,0,.8,0,1.5-.3,2.2-.7,.7-.4,1.3-1,1.8-1.9,.5-.9,.7-2.1,.7-3.7s-.5-2.9-1.5-3.9c-1-.9-2.5-1.4-4.4-1.4h-4.8v11.6Zm-4.1-14.9h10.6c2.6,0,4.7,.7,6.2,2.2,1.5,1.4,2.3,3.5,2.3,6.1s0,1.8-.2,2.7c-.2,.9-.5,1.7-.8,2.5-.4,.7-.9,1.4-1.6,2-.6,.6-1.4,1-2.4,1.2h0c1.4,.2,2.5,.8,3.3,1.9,.8,1,1.2,2.3,1.3,3.7l.3,5.6c0,.9,0,1.7,.2,2.3,0,.6,.2,1.1,.4,1.5,.2,.4,.3,.7,.5,.9,.2,.2,.4,.4,.7,.6h-4.8c-.2-.2-.3-.5-.5-.8-.1-.4-.2-.8-.3-1.2,0-.4-.2-.9-.2-1.4,0-.5,0-.9-.1-1.3l-.3-5.1c0-1.1-.3-2-.6-2.6-.3-.6-.7-1.1-1.2-1.4-.5-.3-1-.5-1.5-.6-.5,0-1.1-.1-1.6-.1h-5.5v14.6h-4.1V35.6Z" fill="#fff"></path><path d="M338.4,50.5h4c.6,0,1.3,0,2,0,.8,0,1.5-.3,2.2-.7,.7-.4,1.3-1,1.8-1.9,.5-.9,.7-2.1,.7-3.7s-.5-2.9-1.5-3.9c-1-.9-2.5-1.4-4.4-1.4h-4.8v11.6Zm-4.1-14.9h10.6c2.6,0,4.7,.7,6.2,2.2,1.5,1.4,2.3,3.5,2.3,6.1s0,1.8-.2,2.7c-.2,.9-.5,1.7-.8,2.5-.4,.7-.9,1.4-1.6,2-.6,.6-1.4,1-2.4,1.2h0c1.4,.2,2.5,.8,3.3,1.9,.8,1,1.2,2.3,1.3,3.7l.3,5.6c0,.9,0,1.7,.2,2.3,0,.6,.2,1.1,.4,1.5,.2,.4,.3,.7,.5,.9,.2,.2,.4,.4,.7,.6h-4.8c-.2-.2-.3-.5-.5-.8-.1-.4-.2-.8-.3-1.2,0-.4-.2-.9-.2-1.4,0-.5,0-.9-.1-1.3l-.3-5.1c0-1.1-.3-2-.6-2.6-.3-.6-.7-1.1-1.2-1.4-.5-.3-1-.5-1.5-.6-.5,0-1.1-.1-1.6-.1h-5.5v14.6h-4.1V35.6Z" fill="#fff"></path><path d="M368.8,38.2c-1.4,0-2.6,.4-3.4,1.1-.8,.7-1.5,1.7-1.9,2.9-.5,1.2-.7,2.7-.9,4.4-.1,1.7-.2,3.5-.2,5.4s0,3.7,.2,5.4c.1,1.7,.4,3.1,.9,4.4,.5,1.2,1.1,2.2,1.9,2.9,.8,.7,2,1.1,3.4,1.1s2.6-.4,3.4-1.1c.8-.7,1.5-1.7,1.9-2.9,.5-1.2,.7-2.7,.9-4.4,.1-1.7,.2-3.5,.2-5.4s0-3.7-.2-5.4c-.1-1.7-.4-3.1-.9-4.4-.5-1.2-1.1-2.2-1.9-2.9-.8-.7-2-1.1-3.4-1.1m0-3.3c2.3,0,4.1,.5,5.5,1.5,1.4,1,2.5,2.3,3.2,3.9,.8,1.6,1.3,3.5,1.5,5.5,.2,2,.4,4.1,.4,6.1s-.1,4.1-.4,6.2c-.2,2-.8,3.9-1.5,5.5-.8,1.6-1.8,2.9-3.2,3.9-1.4,1-3.2,1.5-5.5,1.5s-4.1-.5-5.5-1.5c-1.4-1-2.5-2.3-3.2-3.9-.8-1.6-1.3-3.5-1.5-5.5-.2-2-.4-4.1-.4-6.2s.1-4.1,.4-6.1c.2-2,.8-3.9,1.5-5.5,.8-1.6,1.8-2.9,3.2-3.9,1.4-1,3.2-1.5,5.5-1.5" fill="#fff"></path><path d="M368.8,38.2c-1.4,0-2.6,.4-3.4,1.1-.8,.7-1.5,1.7-1.9,2.9-.5,1.2-.7,2.7-.9,4.4-.1,1.7-.2,3.5-.2,5.4s0,3.7,.2,5.4c.1,1.7,.4,3.1,.9,4.4,.5,1.2,1.1,2.2,1.9,2.9,.8,.7,2,1.1,3.4,1.1s2.6-.4,3.4-1.1c.8-.7,1.5-1.7,1.9-2.9,.5-1.2,.7-2.7,.9-4.4,.1-1.7,.2-3.5,.2-5.4s0-3.7-.2-5.4c-.1-1.7-.4-3.1-.9-4.4-.5-1.2-1.1-2.2-1.9-2.9-.8-.7-2-1.1-3.4-1.1Zm0-3.3c2.3,0,4.1,.5,5.5,1.5,1.4,1,2.5,2.3,3.2,3.9,.8,1.6,1.3,3.5,1.5,5.5,.2,2,.4,4.1,.4,6.1s-.1,4.1-.4,6.2c-.2,2-.8,3.9-1.5,5.5-.8,1.6-1.8,2.9-3.2,3.9-1.4,1-3.2,1.5-5.5,1.5s-4.1-.5-5.5-1.5c-1.4-1-2.5-2.3-3.2-3.9-.8-1.6-1.3-3.5-1.5-5.5-.2-2-.4-4.1-.4-6.2s.1-4.1,.4-6.1c.2-2,.8-3.9,1.5-5.5,.8-1.6,1.8-2.9,3.2-3.9,1.4-1,3.2-1.5,5.5-1.5Z" fill="#fff"></path><path d="M389.2,65.1h4.2c1.7,0,3.1-.4,4.2-1.2,1-.8,1.8-1.8,2.3-3.1,.5-1.3,.9-2.7,1-4.2,.2-1.6,.2-3.1,.2-4.5s0-3.2-.2-4.7c-.1-1.6-.4-3-.9-4.2-.5-1.2-1.3-2.3-2.3-3-1-.8-2.5-1.2-4.3-1.2h-4.2v26.3Zm-4.1-29.6h8.8c2.5,0,4.6,.4,6.1,1.3,1.5,.9,2.7,2,3.5,3.5,.8,1.5,1.3,3.2,1.6,5.2,.2,2,.4,4.1,.4,6.4s-.2,4.1-.5,6.1c-.3,2-.9,3.7-1.7,5.3-.8,1.5-2,2.8-3.4,3.7-1.4,.9-3.3,1.4-5.5,1.4h-9.2V35.6Z" fill="#fff"></path><path d="M389.2,65.1h4.2c1.7,0,3.1-.4,4.2-1.2,1-.8,1.8-1.8,2.3-3.1,.5-1.3,.9-2.7,1-4.2,.2-1.6,.2-3.1,.2-4.5s0-3.2-.2-4.7c-.1-1.6-.4-3-.9-4.2-.5-1.2-1.3-2.3-2.3-3-1-.8-2.5-1.2-4.3-1.2h-4.2v26.3Zm-4.1-29.6h8.8c2.5,0,4.6,.4,6.1,1.3,1.5,.9,2.7,2,3.5,3.5,.8,1.5,1.3,3.2,1.6,5.2,.2,2,.4,4.1,.4,6.4s-.2,4.1-.5,6.1c-.3,2-.9,3.7-1.7,5.3-.8,1.5-2,2.8-3.4,3.7-1.4,.9-3.3,1.4-5.5,1.4h-9.2V35.6Z" fill="#fff"></path><path d="M410.3,35.6h4.1v23.1c0,2.4,.4,4.2,1.2,5.4,.8,1.2,2.2,1.7,4.2,1.7s3.6-.6,4.3-1.8c.8-1.2,1.2-3,1.2-5.3v-23.1h4.1v23.1c0,3.2-.8,5.7-2.4,7.6-1.6,1.9-4,2.8-7.2,2.8s-5.8-.9-7.3-2.6c-1.5-1.7-2.3-4.3-2.3-7.8v-23.1Z" fill="#fff"></path><path d="M410.3,35.6h4.1v23.1c0,2.4,.4,4.2,1.2,5.4,.8,1.2,2.2,1.7,4.2,1.7s3.6-.6,4.3-1.8c.8-1.2,1.2-3,1.2-5.3v-23.1h4.1v23.1c0,3.2-.8,5.7-2.4,7.6-1.6,1.9-4,2.8-7.2,2.8s-5.8-.9-7.3-2.6c-1.5-1.7-2.3-4.3-2.3-7.8v-23.1Z" fill="#fff"></path><path d="M455.1,57.2c0,1.6-.3,3.1-.7,4.5-.4,1.4-1,2.7-1.7,3.8-.8,1.1-1.8,2-3,2.6-1.2,.7-2.8,1-4.5,1s-4.2-.5-5.6-1.5-2.5-2.3-3.2-3.9c-.7-1.6-1.2-3.5-1.4-5.5-.2-2-.3-4.1-.3-6.2s.1-4.1,.4-6.1c.2-2,.8-3.9,1.5-5.5,.8-1.6,1.8-2.9,3.2-3.9,1.4-1,3.2-1.5,5.5-1.5,3.3,0,5.8,.9,7.3,2.7,1.5,1.8,2.3,4.3,2.4,7.6h-4.1c0-.9-.1-1.8-.3-2.6-.2-.8-.5-1.6-.9-2.2-.4-.6-1-1.1-1.7-1.5s-1.6-.6-2.6-.6-2.6,.4-3.4,1.1c-.8,.7-1.5,1.7-1.9,2.9-.5,1.2-.7,2.7-.9,4.4-.1,1.7-.2,3.5-.2,5.4s0,3.7,.2,5.4c.1,1.7,.4,3.1,.9,4.4,.5,1.2,1.1,2.2,1.9,2.9,.8,.7,2,1.1,3.4,1.1s2.2-.3,3-.8c.7-.5,1.3-1.2,1.8-2,.4-.8,.7-1.8,.8-2.8,.1-1,.2-2,.3-3h4.1Z" fill="#fff"></path><path d="M455.1,57.2c0,1.6-.3,3.1-.7,4.5-.4,1.4-1,2.7-1.7,3.8-.8,1.1-1.8,2-3,2.6-1.2,.7-2.8,1-4.5,1s-4.2-.5-5.6-1.5-2.5-2.3-3.2-3.9c-.7-1.6-1.2-3.5-1.4-5.5-.2-2-.3-4.1-.3-6.2s.1-4.1,.4-6.1c.2-2,.8-3.9,1.5-5.5,.8-1.6,1.8-2.9,3.2-3.9,1.4-1,3.2-1.5,5.5-1.5,3.3,0,5.8,.9,7.3,2.7,1.5,1.8,2.3,4.3,2.4,7.6h-4.1c0-.9-.1-1.8-.3-2.6-.2-.8-.5-1.6-.9-2.2-.4-.6-1-1.1-1.7-1.5s-1.6-.6-2.6-.6-2.6,.4-3.4,1.1c-.8,.7-1.5,1.7-1.9,2.9-.5,1.2-.7,2.7-.9,4.4-.1,1.7-.2,3.5-.2,5.4s0,3.7,.2,5.4c.1,1.7,.4,3.1,.9,4.4,.5,1.2,1.1,2.2,1.9,2.9,.8,.7,2,1.1,3.4,1.1s2.2-.3,3-.8c.7-.5,1.3-1.2,1.8-2,.4-.8,.7-1.8,.8-2.8,.1-1,.2-2,.3-3h4.1Z" fill="#fff"></path><polygon points="469.4 68.4 465.3 68.4 465.3 39.1 457 39.1 457 35.6 477.7 35.6 477.7 39.1 469.4 39.1 469.4 68.4" fill="#fff"></polygon><polygon points="469.4 68.4 465.3 68.4 465.3 39.1 457 39.1 457 35.6 477.7 35.6 477.7 39.1 469.4 39.1 469.4 68.4" fill="#fff"></polygon><path d="M494.9,44.1c0-.9,0-1.7-.3-2.4-.2-.7-.5-1.3-.9-1.8-.4-.5-.9-.9-1.6-1.2-.7-.3-1.5-.4-2.4-.4-1.7,0-3.1,.5-4,1.4-.9,.9-1.4,2.2-1.4,4s.4,2.7,1.2,3.5c.8,.8,1.7,1.5,2.9,2,1.2,.5,2.4,.9,3.7,1.3,1.3,.4,2.6,.9,3.7,1.5,1.2,.6,2.1,1.5,2.9,2.7,.8,1.1,1.2,2.7,1.2,4.7s-.3,3.5-.9,4.7c-.6,1.3-1.4,2.3-2.4,3-1,.7-2.1,1.3-3.3,1.6-1.2,.3-2.4,.5-3.6,.5-1.9,0-3.5-.2-4.8-.7-1.3-.5-2.3-1.2-3-2.1-.8-.9-1.3-2.1-1.6-3.4-.3-1.4-.5-2.9-.5-4.7h4.1c0,.9,0,1.8,.1,2.7,0,.9,.3,1.7,.7,2.5,.4,.7,1,1.3,1.8,1.8,.8,.4,2,.7,3.4,.7s1.5-.1,2.3-.4c.7-.3,1.3-.7,1.8-1.2s.9-1.1,1.2-1.8c.3-.7,.4-1.5,.4-2.4s-.2-2.1-.7-2.9c-.4-.7-1-1.4-1.8-1.9-.7-.5-1.6-.9-2.5-1.2-.9-.3-1.9-.7-2.9-1-1-.3-1.9-.7-2.9-1.1-.9-.4-1.8-1-2.5-1.6-.7-.7-1.3-1.5-1.8-2.5-.4-1-.7-2.3-.7-3.8s.1-1.7,.3-2.7c.2-1,.7-2,1.4-3,.7-1,1.7-1.8,2.9-2.4,1.3-.7,2.9-1,5-1,3.2,0,5.5,.8,6.9,2.3,1.5,1.5,2.2,3.8,2.3,6.9h-4.1Z" fill="#fff"></path><path d="M494.9,44.1c0-.9,0-1.7-.3-2.4-.2-.7-.5-1.3-.9-1.8-.4-.5-.9-.9-1.6-1.2-.7-.3-1.5-.4-2.4-.4-1.7,0-3.1,.5-4,1.4-.9,.9-1.4,2.2-1.4,4s.4,2.7,1.2,3.5c.8,.8,1.7,1.5,2.9,2,1.2,.5,2.4,.9,3.7,1.3,1.3,.4,2.6,.9,3.7,1.5,1.2,.6,2.1,1.5,2.9,2.7,.8,1.1,1.2,2.7,1.2,4.7s-.3,3.5-.9,4.7c-.6,1.3-1.4,2.3-2.4,3-1,.7-2.1,1.3-3.3,1.6-1.2,.3-2.4,.5-3.6,.5-1.9,0-3.5-.2-4.8-.7-1.3-.5-2.3-1.2-3-2.1-.8-.9-1.3-2.1-1.6-3.4-.3-1.4-.5-2.9-.5-4.7h4.1c0,.9,0,1.8,.1,2.7,0,.9,.3,1.7,.7,2.5,.4,.7,1,1.3,1.8,1.8,.8,.4,2,.7,3.4,.7s1.5-.1,2.3-.4c.7-.3,1.3-.7,1.8-1.2s.9-1.1,1.2-1.8c.3-.7,.4-1.5,.4-2.4s-.2-2.1-.7-2.9c-.4-.7-1-1.4-1.8-1.9-.7-.5-1.6-.9-2.5-1.2-.9-.3-1.9-.7-2.9-1-1-.3-1.9-.7-2.9-1.1-.9-.4-1.8-1-2.5-1.6-.7-.7-1.3-1.5-1.8-2.5-.4-1-.7-2.3-.7-3.8s.1-1.7,.3-2.7c.2-1,.7-2,1.4-3,.7-1,1.7-1.8,2.9-2.4,1.3-.7,2.9-1,5-1,3.2,0,5.5,.8,6.9,2.3,1.5,1.5,2.2,3.8,2.3,6.9h-4.1Z" fill="#fff"></path><path d="M213.6,99.6c0-.9-.2-1.7-.4-2.5-.2-.8-.5-1.5-.9-2-.4-.6-1-1.1-1.7-1.4-.7-.4-1.5-.5-2.6-.5s-2.6,.4-3.4,1.1c-.8,.7-1.5,1.7-1.9,2.9-.4,1.2-.7,2.7-.9,4.4-.1,1.7-.2,3.5-.2,5.4s0,3.7,.2,5.4c.1,1.7,.4,3.1,.9,4.4,.4,1.2,1.1,2.2,1.9,2.9,.8,.7,2,1.1,3.4,1.1s2.5-.4,3.3-1.1c.8-.8,1.4-1.7,1.8-2.8,.4-1.1,.7-2.3,.8-3.6,.1-1.3,.2-2.5,.2-3.6h-6.5v-3.3h10.2v17.1h-3v-4.5h0c-.4,1.4-1.3,2.6-2.5,3.6-1.2,1-2.8,1.5-4.6,1.5s-3.9-.5-5.2-1.4c-1.3-1-2.3-2.2-3.1-3.8-.7-1.6-1.2-3.4-1.4-5.5-.2-2.1-.4-4.2-.4-6.4s.1-4.1,.4-6.2c.2-2,.8-3.9,1.5-5.5,.8-1.6,1.8-2.9,3.2-3.9,1.4-1,3.2-1.5,5.5-1.5s2.9,.2,4,.6c1.1,.4,2,.9,2.7,1.5,.7,.6,1.3,1.3,1.7,2.1,.4,.8,.7,1.5,.9,2.2,.2,.7,.3,1.4,.4,2,0,.6,0,1,0,1.3h-4.1Z" fill="#fff"></path><path d="M213.6,99.6c0-.9-.2-1.7-.4-2.5-.2-.8-.5-1.5-.9-2-.4-.6-1-1.1-1.7-1.4-.7-.4-1.5-.5-2.6-.5s-2.6,.4-3.4,1.1c-.8,.7-1.5,1.7-1.9,2.9-.4,1.2-.7,2.7-.9,4.4-.1,1.7-.2,3.5-.2,5.4s0,3.7,.2,5.4c.1,1.7,.4,3.1,.9,4.4,.4,1.2,1.1,2.2,1.9,2.9,.8,.7,2,1.1,3.4,1.1s2.5-.4,3.3-1.1c.8-.8,1.4-1.7,1.8-2.8,.4-1.1,.7-2.3,.8-3.6,.1-1.3,.2-2.5,.2-3.6h-6.5v-3.3h10.2v17.1h-3v-4.5h0c-.4,1.4-1.3,2.6-2.5,3.6-1.2,1-2.8,1.5-4.6,1.5s-3.9-.5-5.2-1.4c-1.3-1-2.3-2.2-3.1-3.8-.7-1.6-1.2-3.4-1.4-5.5-.2-2.1-.4-4.2-.4-6.4s.1-4.1,.4-6.2c.2-2,.8-3.9,1.5-5.5,.8-1.6,1.8-2.9,3.2-3.9,1.4-1,3.2-1.5,5.5-1.5s2.9,.2,4,.6c1.1,.4,2,.9,2.7,1.5,.7,.6,1.3,1.3,1.7,2.1,.4,.8,.7,1.5,.9,2.2,.2,.7,.3,1.4,.4,2,0,.6,0,1,0,1.3h-4.1Z" fill="#fff"></path><polygon points="223.1 90.5 230 90.5 236.6 116.5 236.7 116.5 243.3 90.5 250.2 90.5 250.2 123.3 246.1 123.3 246.1 94.6 246 94.6 238.7 123.3 234.6 123.3 227.3 94.6 227.2 94.6 227.2 123.3 223.1 123.3 223.1 90.5" fill="#fff"></polygon><polygon points="223.1 90.5 230 90.5 236.6 116.5 236.7 116.5 243.3 90.5 250.2 90.5 250.2 123.3 246.1 123.3 246.1 94.6 246 94.6 238.7 123.3 234.6 123.3 227.3 94.6 227.2 94.6 227.2 123.3 223.1 123.3 223.1 90.5" fill="#fff"></polygon><path d="M260,120h5.5c1.1,0,2-.2,2.7-.5,.7-.3,1.3-.8,1.8-1.3,.4-.6,.8-1.2,1-1.9,.2-.7,.3-1.5,.3-2.3,0-1.1-.2-2.1-.5-2.9-.3-.8-.8-1.4-1.4-1.9-.6-.5-1.3-.9-2-1.1-.8-.2-1.6-.3-2.5-.3h-4.8v12.3Zm0-15.4h4.6c.4,0,1,0,1.6-.1,.6,0,1.2-.3,1.8-.7,.6-.4,1.1-.9,1.5-1.7,.4-.7,.6-1.7,.6-3s-.4-3.1-1.3-4c-.9-.9-2.3-1.4-4.3-1.4h-4.6v10.9Zm-4.1-14.2h10.1c1.1,0,2.1,.1,3.1,.4,1,.3,1.9,.7,2.7,1.4,.8,.7,1.4,1.5,1.9,2.6,.5,1.1,.7,2.4,.7,4s-.1,1.5-.3,2.2c-.2,.7-.5,1.4-.9,2-.4,.6-.9,1.1-1.5,1.6-.6,.5-1.3,.8-2,1h0c2,.6,3.5,1.6,4.4,3,.9,1.4,1.4,3.2,1.4,5.2,0,3.3-.9,5.8-2.7,7.2-1.8,1.5-4.5,2.2-7.9,2.2h-8.9v-32.9Z" fill="#fff"></path><path d="M260,120h5.5c1.1,0,2-.2,2.7-.5,.7-.3,1.3-.8,1.8-1.3,.4-.6,.8-1.2,1-1.9,.2-.7,.3-1.5,.3-2.3,0-1.1-.2-2.1-.5-2.9-.3-.8-.8-1.4-1.4-1.9-.6-.5-1.3-.9-2-1.1-.8-.2-1.6-.3-2.5-.3h-4.8v12.3Zm0-15.4h4.6c.4,0,1,0,1.6-.1,.6,0,1.2-.3,1.8-.7,.6-.4,1.1-.9,1.5-1.7,.4-.7,.6-1.7,.6-3s-.4-3.1-1.3-4c-.9-.9-2.3-1.4-4.3-1.4h-4.6v10.9Zm-4.1-14.2h10.1c1.1,0,2.1,.1,3.1,.4,1,.3,1.9,.7,2.7,1.4,.8,.7,1.4,1.5,1.9,2.6,.5,1.1,.7,2.4,.7,4s-.1,1.5-.3,2.2c-.2,.7-.5,1.4-.9,2-.4,.6-.9,1.1-1.5,1.6-.6,.5-1.3,.8-2,1h0c2,.6,3.5,1.6,4.4,3,.9,1.4,1.4,3.2,1.4,5.2,0,3.3-.9,5.8-2.7,7.2-1.8,1.5-4.5,2.2-7.9,2.2h-8.9v-32.9Z" fill="#fff"></path><polygon points="299.6 123.3 295.4 123.3 295.4 107.5 284.4 107.5 284.4 123.3 280.2 123.3 280.2 90.5 284.4 90.5 284.4 103.9 295.4 103.9 295.4 90.5 299.6 90.5 299.6 123.3" fill="#fff"></polygon><polygon points="299.6 123.3 295.4 123.3 295.4 107.5 284.4 107.5 284.4 123.3 280.2 123.3 280.2 90.5 284.4 90.5 284.4 103.9 295.4 103.9 295.4 90.5 299.6 90.5 299.6 123.3" fill="#fff"></polygon></g><g><path d="M18.8,178.8c-4.9-.2-9.4-2.2-12.9-5.5-3.5-3.2-5.5-7.9-5.5-12.9V35.4H18.8V178.8Z" fill="#868686"></path><path d="M73.8,35.4H37.1v106.4c4.9-.2,9.4-2.2,12.9-5.5,3.5-3.2,5.5-7.9,5.5-12.9V53.8h18.4v105.1H37.2v53.1h18.3v-34.7h18.3c10.2,0,18.3-8.2,18.3-18.4V53.8c0-10.2-8.2-18.4-18.3-18.4" fill="#ff8b00"></path><path d="M146.5,35.4h-36.7v106.4c4.9-.2,9.4-2.2,12.9-5.5,3.5-3.2,5.4-7.9,5.4-12.9V53.8h18.4v105.1h-36.6v53.1h18.3v-34.7h18.3c10.2,0,18.3-8.2,18.3-18.4V53.8c0-10.2-8.2-18.4-18.3-18.4" fill="#ff8b00"></path><path d="M0,10C0,4.5,4.5,0,10,0s10,4.5,10,10-4.5,10-10,10S0,15.6,0,10" fill="#868686"></path></g><g><path d="M201.2,171.6v.5c0,.4,0,.8,0,1.1,0,.3,.2,.6,.4,.9,.2,.2,.4,.4,.7,.5,.3,.1,.7,.2,1.2,.2s1-.2,1.5-.5c.4-.4,.7-.9,.7-1.6s0-.7-.2-1c-.1-.3-.3-.6-.5-.8-.2-.2-.6-.4-1-.6-.4-.2-.9-.4-1.5-.6-.8-.3-1.5-.6-2.1-.9-.6-.3-1.1-.7-1.4-1.1s-.7-.9-.9-1.5c-.2-.6-.3-1.2-.3-1.9,0-1.8,.5-3.1,1.5-3.9,1-.9,2.3-1.3,4-1.3s1.5,0,2.2,.3c.7,.2,1.2,.5,1.7,.8s.9,.9,1.1,1.5c.3,.6,.4,1.3,.4,2.2v.5h-3.4c0-.8-.1-1.5-.4-1.9-.3-.5-.8-.7-1.5-.7s-.7,0-1,.2c-.3,.1-.5,.3-.6,.5-.2,.2-.3,.4-.3,.7,0,.2,0,.5,0,.8,0,.5,.1,1,.3,1.4,.2,.4,.7,.7,1.5,1l2.7,1.2c.7,.3,1.2,.6,1.6,.9,.4,.3,.8,.7,1,1,.3,.4,.4,.8,.5,1.2,0,.4,.2,.9,.2,1.5,0,1.9-.5,3.2-1.6,4.1-1.1,.9-2.6,1.3-4.5,1.3s-3.5-.5-4.3-1.4c-.9-.9-1.3-2.2-1.3-3.8v-.7h3.6Z" fill="#868686"></path><path d="M215.1,168.3c0,1.2,0,2.2,0,3,0,.8,.2,1.5,.3,2,.2,.5,.4,.9,.7,1.1,.3,.2,.7,.4,1.3,.4s1-.1,1.3-.4c.3-.2,.6-.6,.7-1.1,.2-.5,.3-1.2,.3-2,0-.8,0-1.8,0-3s0-2.2,0-3c0-.8-.2-1.5-.3-2-.2-.5-.4-.9-.7-1.2-.3-.2-.7-.4-1.3-.4s-1,.1-1.3,.4c-.3,.2-.6,.6-.7,1.2-.2,.5-.3,1.2-.3,2,0,.8,0,1.8,0,3m-3.6,0c0-1.3,0-2.6,.2-3.7,.1-1.1,.4-2.1,.8-2.9,.4-.8,1-1.4,1.8-1.9,.8-.5,1.9-.7,3.2-.7s2.4,.2,3.2,.7c.8,.5,1.4,1.1,1.8,1.9,.4,.8,.7,1.8,.8,2.9,.1,1.1,.2,2.4,.2,3.7s0,2.6-.2,3.7c-.1,1.1-.4,2.1-.8,2.9-.4,.8-1,1.4-1.8,1.9-.8,.5-1.9,.7-3.2,.7s-2.4-.2-3.2-.7c-.8-.5-1.4-1.1-1.8-1.9-.4-.8-.7-1.8-.8-2.9-.1-1.1-.2-2.4-.2-3.7" fill="#868686"></path><polygon points="226.4 177.1 226.4 159.4 230 159.4 230 174.2 236.3 174.2 236.3 177.1 226.4 177.1" fill="#868686"></polygon><path d="M242,159.4v12.3c0,.4,0,.9,0,1.2,0,.4,.2,.7,.3,1,.2,.3,.4,.5,.6,.6,.3,.2,.6,.2,1,.2s.8,0,1-.2c.3-.2,.5-.4,.6-.6,.2-.3,.3-.6,.3-1,0-.4,0-.8,0-1.2v-12.3h3.6v12.3c0,1.1-.2,2.1-.5,2.8-.3,.7-.7,1.3-1.3,1.7-.5,.4-1.1,.7-1.8,.9-.7,.2-1.4,.3-2.1,.3s-1.4,0-2.1-.2c-.7-.1-1.3-.4-1.8-.9-.5-.4-.9-1-1.3-1.7-.3-.7-.5-1.7-.5-2.9v-12.3h3.6Z" fill="#868686"></path><polygon points="263 159.4 263 162.3 259.2 162.3 259.2 177.1 255.6 177.1 255.6 162.3 251.7 162.3 251.7 159.4 263 159.4" fill="#868686"></polygon><rect x="265.5" y="159.4" width="3.6" height="17.7" fill="#868686"></rect><path d="M275.6,168.3c0,1.2,0,2.2,0,3,0,.8,.2,1.5,.3,2,.2,.5,.4,.9,.7,1.1,.3,.2,.7,.4,1.3,.4s1-.1,1.3-.4c.3-.2,.6-.6,.7-1.1,.2-.5,.3-1.2,.3-2,0-.8,0-1.8,0-3s0-2.2,0-3-.2-1.5-.3-2c-.2-.5-.4-.9-.7-1.2-.3-.2-.7-.4-1.3-.4s-1,.1-1.3,.4c-.3,.2-.6,.6-.7,1.2-.2,.5-.3,1.2-.3,2,0,.8,0,1.8,0,3m-3.6,0c0-1.3,0-2.6,.2-3.7,.1-1.1,.4-2.1,.8-2.9,.4-.8,1-1.4,1.8-1.9,.8-.5,1.9-.7,3.2-.7s2.4,.2,3.2,.7c.8,.5,1.4,1.1,1.8,1.9,.4,.8,.7,1.8,.8,2.9,.1,1.1,.2,2.4,.2,3.7s0,2.6-.2,3.7c-.1,1.1-.4,2.1-.8,2.9-.4,.8-1,1.4-1.8,1.9-.8,.5-1.9,.7-3.2,.7s-2.4-.2-3.2-.7c-.8-.5-1.4-1.1-1.8-1.9-.4-.8-.7-1.8-.8-2.9-.1-1.1-.2-2.4-.2-3.7" fill="#868686"></path><polygon points="291.1 159.4 295.4 171.5 295.4 171.5 295.4 159.4 298.7 159.4 298.7 177.1 294.6 177.1 290.3 164.7 290.2 164.7 290.2 177.1 286.9 177.1 286.9 159.4 291.1 159.4" fill="#868686"></polygon><path d="M304.8,171.6v.5c0,.4,0,.8,0,1.1,0,.3,.2,.6,.4,.9,.2,.2,.4,.4,.7,.5,.3,.1,.7,.2,1.2,.2s1-.2,1.5-.5c.4-.4,.7-.9,.7-1.6s0-.7-.2-1c-.1-.3-.3-.6-.5-.8-.2-.2-.6-.4-1-.6-.4-.2-.9-.4-1.5-.6-.8-.3-1.5-.6-2.1-.9-.6-.3-1.1-.7-1.4-1.1s-.7-.9-.9-1.5c-.2-.6-.3-1.2-.3-1.9,0-1.8,.5-3.1,1.5-3.9,1-.9,2.3-1.3,4-1.3s1.5,0,2.2,.3c.7,.2,1.2,.5,1.7,.8,.5,.4,.9,.9,1.1,1.5,.3,.6,.4,1.3,.4,2.2v.5h-3.4c0-.8-.1-1.5-.4-1.9-.3-.5-.8-.7-1.5-.7s-.7,0-1,.2c-.3,.1-.5,.3-.6,.5-.2,.2-.3,.4-.3,.7,0,.2,0,.5,0,.8,0,.5,.1,1,.3,1.4,.2,.4,.7,.7,1.5,1l2.7,1.2c.7,.3,1.2,.6,1.6,.9,.4,.3,.8,.7,1,1,.3,.4,.4,.8,.5,1.2,0,.4,.2,.9,.2,1.5,0,1.9-.5,3.2-1.6,4.1-1.1,.9-2.6,1.3-4.5,1.3s-3.5-.5-4.3-1.4c-.9-.9-1.3-2.2-1.3-3.8v-.7h3.6Z" fill="#868686"></path><path d="M325.9,163c0,.5,.3,1.1,.9,1.9l.4,.6,.6-.5c.4-.3,.7-.7,.9-1,.2-.3,.3-.6,.3-1,0-.5-.1-.8-.4-1.1-.3-.3-.7-.4-1.1-.4s-.8,.1-1.1,.4-.4,.6-.4,1.1m.5,6.3c-.7,.5-1.2,1-1.4,1.5-.3,.5-.4,1-.4,1.5s0,.6,.2,.8c.1,.3,.3,.5,.5,.7,.2,.2,.5,.4,.8,.5,.3,.1,.7,.2,1.1,.2,.9,0,1.7-.4,2.3-1.1l-3-4.2Zm5,1.9c.2-.4,.3-.8,.4-1.3,.1-.5,.2-1,.2-1.3h3.1c0,1-.2,1.9-.5,2.8-.3,.9-.8,1.7-1.3,2.5l2.3,3.3h-3.8l-1-1.4c-.4,.5-1,.9-1.8,1.3s-1.6,.5-2.5,.5-2-.2-2.7-.5c-.7-.3-1.3-.8-1.6-1.3-.4-.5-.7-1.1-.8-1.7-.1-.6-.2-1.1-.2-1.6,0-1,.3-2,1-2.8,.6-.8,1.5-1.6,2.6-2.3l-.6-.9c-.2-.4-.4-.7-.6-1-.2-.3-.3-.5-.4-.8,0-.2-.1-.5-.2-.7,0-.2,0-.5,0-.7,0-.6,.1-1.1,.3-1.5,.2-.5,.5-.9,.9-1.2,.4-.3,.9-.6,1.4-.7,.6-.2,1.2-.3,1.8-.3s1.4,0,2,.3c.6,.2,1,.5,1.4,.8,.4,.3,.6,.7,.8,1.2,.2,.4,.3,.9,.3,1.4,0,.9-.3,1.7-.8,2.4-.5,.7-1.3,1.4-2.3,2.2l2.7,3.6Z" fill="#868686"></path><polygon points="354.6 159.4 354.6 162.3 350.8 162.3 350.8 177.1 347.2 177.1 347.2 162.3 343.4 162.3 343.4 159.4 354.6 159.4" fill="#868686"></polygon><polygon points="366.8 159.4 366.8 162.3 360.5 162.3 360.5 166.5 366.4 166.5 366.4 169.4 360.5 169.4 360.5 174.2 367.1 174.2 367.1 177.1 356.9 177.1 356.9 159.4 366.8 159.4" fill="#868686"></polygon><path d="M377.1,165.4c0-1.3-.2-2.2-.5-2.8-.3-.6-.9-.9-1.7-.9s-.8,.1-1.1,.4c-.3,.2-.5,.6-.7,1.2-.2,.5-.3,1.2-.3,2.1,0,.9,0,1.9,0,3.2s0,2.4,.1,3.2,.2,1.5,.4,1.9c.2,.5,.4,.8,.7,.9,.3,.2,.6,.2,1,.2s.6,0,.9-.2c.3-.1,.5-.3,.7-.6,.2-.3,.4-.8,.5-1.4,.1-.6,.2-1.4,.2-2.3h3.6c0,1,0,1.9-.2,2.7-.1,.9-.4,1.6-.8,2.3-.4,.7-1,1.2-1.7,1.6-.7,.4-1.7,.6-2.9,.6s-2.4-.2-3.2-.7c-.8-.5-1.4-1.1-1.8-1.9-.4-.8-.7-1.8-.8-2.9-.1-1.1-.2-2.4-.2-3.7s0-2.6,.2-3.7c.1-1.1,.4-2.1,.8-2.9,.4-.8,1-1.4,1.8-1.9,.8-.5,1.9-.7,3.2-.7s2.3,.2,3,.6c.7,.4,1.3,.9,1.6,1.6,.4,.6,.6,1.3,.7,2.1,0,.7,.1,1.4,.1,2.1h-3.6Z" fill="#868686"></path><polygon points="383.6 159.4 387.2 159.4 387.2 166.2 391.3 166.2 391.3 159.4 394.9 159.4 394.9 177.1 391.3 177.1 391.3 169.3 387.2 169.3 387.2 177.1 383.6 177.1 383.6 159.4" fill="#868686"></polygon><polygon points="402.2 159.4 406.5 171.5 406.6 171.5 406.6 159.4 409.9 159.4 409.9 177.1 405.8 177.1 401.4 164.7 401.4 164.7 401.4 177.1 398.1 177.1 398.1 159.4 402.2 159.4" fill="#868686"></polygon><path d="M416.3,168.3c0,1.2,0,2.2,0,3,0,.8,.2,1.5,.3,2,.2,.5,.4,.9,.7,1.1,.3,.2,.7,.4,1.3,.4s1-.1,1.3-.4c.3-.2,.6-.6,.7-1.1,.2-.5,.3-1.2,.3-2,0-.8,0-1.8,0-3s0-2.2,0-3-.2-1.5-.3-2c-.2-.5-.4-.9-.7-1.2-.3-.2-.7-.4-1.3-.4s-1,.1-1.3,.4c-.3,.2-.6,.6-.7,1.2-.2,.5-.3,1.2-.3,2,0,.8,0,1.8,0,3m-3.6,0c0-1.3,0-2.6,.2-3.7,.1-1.1,.4-2.1,.8-2.9,.4-.8,1-1.4,1.8-1.9,.8-.5,1.9-.7,3.2-.7s2.4,.2,3.2,.7c.8,.5,1.4,1.1,1.8,1.9,.4,.8,.7,1.8,.8,2.9,.1,1.1,.2,2.4,.2,3.7s0,2.6-.2,3.7c-.1,1.1-.4,2.1-.8,2.9-.4,.8-1,1.4-1.8,1.9-.8,.5-1.9,.7-3.2,.7s-2.4-.2-3.2-.7c-.8-.5-1.4-1.1-1.8-1.9-.4-.8-.7-1.8-.8-2.9-.1-1.1-.2-2.4-.2-3.7" fill="#868686"></path><polygon points="427.6 177.1 427.6 159.4 431.2 159.4 431.2 174.2 437.5 174.2 437.5 177.1 427.6 177.1" fill="#868686"></polygon><path d="M443,168.3c0,1.2,0,2.2,0,3,0,.8,.2,1.5,.3,2,.2,.5,.4,.9,.7,1.1,.3,.2,.7,.4,1.3,.4s1-.1,1.3-.4c.3-.2,.6-.6,.7-1.1,.2-.5,.3-1.2,.3-2,0-.8,0-1.8,0-3s0-2.2,0-3c0-.8-.2-1.5-.3-2-.2-.5-.4-.9-.7-1.2-.3-.2-.7-.4-1.3-.4s-1,.1-1.3,.4c-.3,.2-.6,.6-.7,1.2-.2,.5-.3,1.2-.3,2,0,.8,0,1.8,0,3m-3.6,0c0-1.3,0-2.6,.2-3.7,.1-1.1,.4-2.1,.8-2.9,.4-.8,1-1.4,1.8-1.9,.8-.5,1.9-.7,3.2-.7s2.4,.2,3.2,.7c.8,.5,1.4,1.1,1.8,1.9,.4,.8,.7,1.8,.8,2.9,.1,1.1,.2,2.4,.2,3.7s0,2.6-.2,3.7c-.1,1.1-.4,2.1-.8,2.9-.4,.8-1,1.4-1.8,1.9-.8,.5-1.9,.7-3.2,.7s-2.4-.2-3.2-.7c-.8-.5-1.4-1.1-1.8-1.9-.4-.8-.7-1.8-.8-2.9-.1-1.1-.2-2.4-.2-3.7" fill="#868686"></path><path d="M462.2,164.7c0-.3,0-.7-.1-1,0-.4-.2-.7-.4-1-.2-.3-.4-.5-.6-.7-.3-.2-.6-.3-.9-.3-.9,0-1.5,.5-1.9,1.4-.4,1-.6,2.5-.6,4.8s0,2,0,2.9c0,.8,.2,1.6,.4,2.2,.2,.6,.4,1.1,.7,1.4s.7,.5,1.3,.5,.4,0,.7-.2c.3-.1,.5-.3,.7-.5,.2-.2,.4-.5,.6-.9,.2-.4,.2-.8,.2-1.3v-1.8h-2.4v-2.6h5.8v9.5h-2.6v-1.6h0c-.4,.7-.9,1.2-1.5,1.5-.6,.3-1.3,.5-2.2,.5s-2-.2-2.7-.6c-.7-.4-1.2-1-1.6-1.8-.4-.8-.6-1.8-.8-2.9-.1-1.2-.2-2.5-.2-4.1s0-2.8,.3-3.9c.2-1.1,.5-2.1,1-2.8,.5-.8,1.1-1.3,1.8-1.7,.8-.4,1.7-.6,2.8-.6,1.9,0,3.4,.5,4.2,1.5,.9,1,1.3,2.4,1.3,4.2h-3.4Z" fill="#868686"></path><polygon points="471.7 159.4 474 166.3 474 166.3 476.5 159.4 480.4 159.4 475.8 170.2 475.8 177.1 472.2 177.1 472.2 170.2 467.7 159.4 471.7 159.4" fill="#868686"></polygon></g></g></g></svg> 